<?xml version="1.0" standalone="no"?><!DOCTYPE svg PUBLIC "-//W3C//DTD SVG 1.1//EN" "http://www.w3.org/Graphics/SVG/1.1/DTD/svg11.dtd"><svg t="1503823799950" class="icon" style="" viewBox="0 0 1024 1024" version="1.1" xmlns="http://www.w3.org/2000/svg" p-id="1230" xmlns:xlink="http://www.w3.org/1999/xlink" width="200" height="200"><defs><style type="text/css"></style></defs><path d="M512 1.3056C229.59104 1.3056 0.65536 230.24128 0.65536 512.65024S229.59104 1024 512 1024s511.34464-228.93568 511.34464-511.34464S794.40896 1.3056 512 1.3056z m0 962.30912c-249.05728 0-450.95936-201.90208-450.95936-450.95936S262.9376 61.69088 512 61.69088s450.95936 201.90208 450.95936 450.95936-201.90208 450.96448-450.95936 450.96448z" p-id="1231" fill="#26b1e5"></path><path d="M358.16448 379.27936c3.03616-52.5312 43.4176-144.36352 156.69248-144.36352 104.28928 0 144.27648 94.78144 146.04288 148.23424 1.82272 55.0656 0.64 65.26976 0.64 65.26976h60.032V367.488c0-26.79808-33.05472-192.42496-206.72-192.42496-184.38656 0-219.93984 167.4752-219.93984 191.35488v82.00704h63.0784c0-0.00512-2.42176-24.18688 0.17408-69.1456zM282.94656 716.60032h182.95296v-54.13376a78.11584 78.11584 0 0 1-31.04768-43.776h-151.9104a48.9472 48.9472 0 0 0-48.95232 48.95232c0.00512 27.03872 21.92384 48.95744 48.95744 48.95744zM741.05344 483.61984H282.94656a48.9472 48.9472 0 0 0-48.95232 48.95232 48.9472 48.9472 0 0 0 48.95232 48.95232h150.99904c7.64928-35.04128 38.84032-61.2864 76.17536-61.2864s68.52608 26.24 76.17536 61.2864h154.752a48.9472 48.9472 0 0 0 48.95232-48.95232c0.00512-27.0336-21.9136-48.95232-48.9472-48.95232zM741.05344 618.69056h-155.65824a78.14656 78.14656 0 0 1-34.26816 45.88032v52.02944h189.92128a48.9472 48.9472 0 0 0 48.95232-48.95232 48.9472 48.9472 0 0 0-48.9472-48.95744zM741.05344 752.3328h-189.92128v48.24064H465.90464v-48.24064H282.94656a48.9472 48.9472 0 0 0-48.95232 48.95232 48.9472 48.9472 0 0 0 48.95232 48.95232h458.10176a48.9472 48.9472 0 0 0 48.95232-48.95232c0.00512-27.0336-21.9136-48.95232-48.9472-48.95232z" p-id="1232" fill="#26b1e5"></path></svg>