<?xml version="1.0" standalone="no"?><!DOCTYPE svg PUBLIC "-//W3C//DTD SVG 1.1//EN" "http://www.w3.org/Graphics/SVG/1.1/DTD/svg11.dtd"><svg t="1505533170375" class="icon" style="" viewBox="0 0 1024 1024" version="1.1" xmlns="http://www.w3.org/2000/svg" p-id="4981" xmlns:xlink="http://www.w3.org/1999/xlink" width="200" height="200"><defs><style type="text/css"></style></defs><path d="M507.820306 387.117758c0.379647-0.664126 0.467651-1.152243 0.820692-1.775436 4.288676-8.255011 4.675486-13.56904 0-18.346857-1.803066-1.823532-4.202719-3.666506-7.441483-5.591345-9.257851-5.462408-18.590404-10.858302-27.862581-16.266475-2.89391-1.681292-5.747911-3.625574-9.360182-3.28072-6.614651-0.24457-10.369162 3.666506-13.371542 8.986675-26.514887 46.99636-52.974515 94.007047-79.435167 141.016711-17.235546 30.547737-34.464953 61.101613-51.665707 91.689259-9.407254 16.71366-18.828834 33.358759-28.189016 50.060139-5.739724 10.178827-3.707438 16.60519 6.473435 22.773679 7.184633 4.295839 14.483876 8.498558 21.715581 12.685927 1.735527 1.02433 3.530406 2.088568 5.273097 3.091408 13.413498 7.77508 18.774599 6.2831 26.609031-7.624654 13.278421-23.442922 26.554796-46.955428 39.723723-70.454632 19.269879-34.078143 38.430264-68.149123 57.658188-102.221126C468.477252 456.967616 488.165664 422.062642 507.820306 387.117758" p-id="4982" fill="#8a8a8a"></path><path d="M743.37823 647.407969c2.460028-3.334955 3.972475-7.049556 3.674693-11.542894 0.426719-5.212722-2.609431-9.454326-4.834098-13.9405-3.518127-7.05058-89.125877-169.308057-99.604532-188.799994-21.240767-39.534412-43.120077-78.668711-65.520249-117.525694-11.927657-20.75265-23.457248-41.709961-35.68371-62.314231-10.17985-17.07898-19.777439-34.592866-32.437783-49.998741-3.185552-3.856841-6.520507-10.716063-12.592806-7.53051-5.408173 2.860141-3.484358 9.801227-2.669806 14.971993 2.121314 12.735046 5.794983 25.044396 10.483772 36.973076 8.980535 22.772656 18.686594 45.260833 28.101012 67.898413 16.374946 39.331797 33.07428 78.533634 50.365084 117.525694 8.68173 19.587104 96.114035 198.300368 109.209284 220.032322 5.367241 8.782014 13.176091 13.120832 22.833031 11.481496 5.991458-1.017166 11.542894-3.091408 16.518209-6.128581C735.849766 655.703913 739.990063 652.137691 743.37823 647.407969" p-id="4983" fill="#8a8a8a"></path><path d="M576.281537 493.540579c-0.480954-0.961908-1.152243-1.058099-1.741667-1.681292-2.175549-2.372024-4.874007-3.049452-8.167007-2.995217-14.083763 0-28.181853-0.095167-42.286082-0.095167l-15.445784 0c-4.595668-0.047072-9.184173 0-13.778818-0.047072l-1.105171 0c-3.808746-0.054235-6.214539 1.199315-8.295943 3.137457-1.206478 1.111311-2.378164 2.169409-3.382027 3.999081-14.721283 27.328415-29.834492 54.397934-44.711318 81.609693-1.342578 2.508123-3.965312 4.777817-2.854001 8.404414l186.040137 0c0-1.207501 0.176009-1.932002-0.048095-2.461051C605.731266 553.434691 590.853417 523.565407 576.281537 493.540579" p-id="4984" fill="#8a8a8a"></path><path d="M778.243295 491.859287c-2.75781-1.206478-5.605671-2.27788-8.743128-2.419096-23.952528-1.403976-48.087205-0.38067-72.121598-0.38067 0 1.254573-0.312108 2.068102 0.032746 2.556219 0.055259 0.095167 0.10847 0.14224 0.150426 0.243547 16.950044 30.160927 33.949206 60.273758 50.981115 90.435709 0.960885 1.740644 1.89107 3.529383 4.303003 3.815909 19.790742 2.426259 35.338856-5.015224 40.9916-21.717627 1.010003-3.143597 2.365884-6.071276 2.657526-9.880021 0.759293-11.45489 0.433882-22.976294 0-34.485419-0.149403-4.188392-1.166569-8.200776-2.657526-11.902074C790.795169 500.738515 785.298991 494.936369 778.243295 491.859287" p-id="4985" fill="#8a8a8a"></path><path d="M777.226129 677.277254c-8.160867-13.752212-22.596647-16.014742-38.728046-6.560416-11.968589 7.05672-15.35164 20.088524-8.580422 33.298384 6.03239 11.725042 16.117073 18.73469 27.65178 24.081465 9.380648 4.399193 19.316951 7.638981 28.826536 16.022928 1.457188-10.859325 1.023306-19.833721 0.337691-28.895097C785.732873 701.988052 784.126282 688.913269 777.226129 677.277254" p-id="4986" fill="#8a8a8a"></path><path d="M276.104897 585.913407c1.641383-0.669242 3.091408-2.50096 4.047176-4.14132 12.944823-21.674649 26.02677-43.639916 39.35124-66.027809 4.736884-7.909134 9.366322-15.737426 14.2127-23.883967 0.576121-0.976234 1.146103-1.883907 1.728364-2.901073-5.456269 0-10.620895-0.040932-15.941064-0.094144-19.99438-0.14224-39.392172-0.339738-58.397015 0.324388-0.941442 0.067538-1.795902 0-2.717901 0.067538-3.666506 0.14224-7.096628 1.152243-10.336416 2.602268-10.132778 4.730745-17.330714 15.243169-17.865903 26.880207-0.576121 12.837376-0.772596 25.720801 0.10847 38.45687 1.00284 15.644305 15.534811 28.284183 30.810726 30.417777C266.163477 588.332503 271.32094 587.845409 276.104897 585.913407" p-id="4987" fill="#8a8a8a"></path><path d="M311.499012 686.202531c-10.518564-6.54609-21.234627-12.781094-32.0653-18.815531-8.587586-4.78498-13.135158-2.5071-14.524808 7.42818-1.450025 10.533914-2.609431 21.23565-3.802606 31.91078-0.683569 5.881964-1.470491 11.623735-2.134617 17.559934 0.623193 2.89391-1.172709 6.798846 2.134617 9.082866 0.216941 0.143263 0.257873 0.37146 0.610914 0.514723 3.470031 1.700735 6.42534-0.76441 9.17701-2.650363 13.758352-9.55461 27.67327-18.962887 41.229007-28.804023C320.275909 696.587042 320.045665 691.463348 311.499012 686.202531" p-id="4988" fill="#8a8a8a"></path><path d="M908.02308 400.306128c-5.558599-19.723204-12.505825-38.781258-20.847817-57.20384-16.213263-35.901675-37.311791-69.078285-62.626339-98.642624C748.705562 155.88228 636.298446 99.417267 510.79608 99.417267c-60.734246 0-118.250194 13.528108-170.275081 37.156248-43.234687 19.682271-82.525552 46.446845-116.298749 79.027891-23.64042 22.834055-44.448328 48.460712-62.090127 76.317153-10.396791 16.341177-19.668968 33.380248-27.707039 51.185776-9.637498 21.309328-17.35118 43.593867-23.288402 66.638723-8.505721 32.912597-13.473873 67.261916-13.473873 102.817714 0 35.55682 4.968152 69.864184 13.473873 102.831017 6.356778 24.710798 14.863523 48.500621 25.477254 71.192436 6.940063 14.870686 14.741749 29.238928 23.335475 43.10575 0.75213 1.172709 1.429559 2.338255 2.182712 3.511987 16.936741 26.730805 36.687574 51.517327 59.141982 73.640184 18.862603 18.556635 39.486316 35.305087 61.650105 50.005904 65.357544 43.396369 143.680377 68.854181 227.871871 68.854181 78.465073 0 151.602813-22.366404 214.160591-60.471256 26.359344-16.09149 50.859341-34.856879 72.934103-56.214303 20.38119-19.778462 38.864146-41.426505 54.872748-64.970734 3.415796-5.022387 6.412037-10.378371 9.596566-15.576767 15.046694-24.372084 27.552519-50.383504 37.311791-77.82039 3.044336-8.500605 5.849218-17.093307 8.350179-25.837458 10.146081-35.759435 15.913435-73.300446 15.913435-112.251573C923.936515 473.600435 918.129252 436.038958 908.02308 400.306128L908.02308 400.306128 908.02308 400.306128 908.02308 400.306128zM849.598436 675.330926c-8.581446 17.798365-18.251689 34.878368-29.388331 50.955532-20.85498 30.072923-45.924959 56.898895-74.411757 79.746252-28.616758 22.961968-60.641125 41.736567-95.233991 55.631018-43.24185 17.336854-90.285283 27.16571-139.618874 27.16571-56.653301 0-110.164029-12.945847-158.413939-35.447327-28.486798-13.313214-55.230905-29.815049-79.319533-49.504484-26.968212-22.055318-50.683333-47.810912-70.677713-76.385714-14.382569-20.59813-26.818809-42.617633-36.910655-65.919339-11.800767-27.200502-20.184715-56.132438-25.27464-86.23913-3.449565-20.442588-5.672186-41.330314-5.672186-62.775742 0-52.946886 11.101849-103.278201 30.946826-149.000546 2.744507-6.391571 5.916756-12.565177 9.014304-18.74697 24.609491-49.13814 59.508325-92.162026 102.051257-126.207423 20.286022-16.124236 42.258453-30.140461 65.621557-41.913599 50.806129-25.578562 107.98234-40.387849 168.634722-40.387849 128.965234 0 242.911402 65.268516 310.715671 164.481122 9.55768 13.96199 17.941628 28.765137 25.579585 44.027749 23.023366 45.987381 36.782741 97.178273 39.134299 151.420665 0.243547 5.469572 0.827855 10.81737 0.827855 16.327874C887.201869 570.900481 873.442494 626.003474 849.598436 675.330926L849.598436 675.330926 849.598436 675.330926 849.598436 675.330926zM856.464821 678.625972" p-id="4989" fill="#8a8a8a"></path></svg>