<?xml version="1.0" standalone="no"?><!DOCTYPE svg PUBLIC "-//W3C//DTD SVG 1.1//EN" "http://www.w3.org/Graphics/SVG/1.1/DTD/svg11.dtd"><svg t="1501213101143" class="icon" style="" viewBox="0 0 1024 1024" version="1.1" xmlns="http://www.w3.org/2000/svg" p-id="3376" xmlns:xlink="http://www.w3.org/1999/xlink" width="200" height="200"><defs><style type="text/css"></style></defs><path d="M648.260267 129.774933l241.390933 241.390933-462.711467 462.711467L185.5488 592.4864 648.260267 129.774933z" p-id="3377" fill="#818181"></path><path d="M744.789333 33.245867l241.322667 241.322667-72.430933 72.430933L672.426667 105.6768 744.789333 33.245867z" p-id="3378" fill="#818181"></path><path d="M161.3824 616.6528 402.773333 858.043733l-337.92 96.529067L161.3824 616.6528z" p-id="3379" fill="#818181"></path><path d="M838.314667 30.242133l150.869333 150.869333c24.9856 24.9856 23.620267 66.901333-3.003733 93.525333-26.692267 26.692267-68.539733 27.989333-93.525333 3.003733l-150.869333-150.869333c-24.9856-24.9856-23.620267-66.901333 3.003733-93.525333C771.4816 6.621867 813.329067 5.256533 838.314667 30.242133z" p-id="3380" fill="#818181"></path></svg>