<?xml version="1.0" standalone="no"?><!DOCTYPE svg PUBLIC "-//W3C//DTD SVG 1.1//EN" "http://www.w3.org/Graphics/SVG/1.1/DTD/svg11.dtd"><svg t="1501212497622" class="icon" style="" viewBox="0 0 1024 1024" version="1.1" xmlns="http://www.w3.org/2000/svg" p-id="4318" xmlns:xlink="http://www.w3.org/1999/xlink" width="200" height="200"><defs><style type="text/css"></style></defs><path d="M204.8 444.16C284.16 602.88 421.12 733.44 579.84 819.2l125.44-125.44c16.64-16.64 39.68-23.04 56.32-11.52 62.72 23.04 130.56 34.56 204.8 34.56 34.56 0 56.32 23.04 56.32 56.32v193.28c0 34.56-23.04 56.32-56.32 56.32C432.64 1024 0 591.36 0 56.32 0 23.04 23.04 0 56.32 0H256c34.56 0 56.32 23.04 56.32 56.32 0 67.84 11.52 136.96 34.56 204.8 5.12 16.64 0 39.68-11.52 56.32L204.8 444.16z" p-id="4319" fill="#818181"></path></svg>