<?xml version="1.0" standalone="no"?><!DOCTYPE svg PUBLIC "-//W3C//DTD SVG 1.1//EN" "http://www.w3.org/Graphics/SVG/1.1/DTD/svg11.dtd"><svg t="1500967391633" class="icon" style="" viewBox="0 0 1024 1024" version="1.1" xmlns="http://www.w3.org/2000/svg" p-id="7626" xmlns:xlink="http://www.w3.org/1999/xlink" width="200" height="200"><defs><style type="text/css"></style></defs><path d="M907.58664 343.013261c-10.875698-12.903891-26.368554-22.087041-43.627636-22.087041L284.149619 320.92622l-45.639456-101.420901c-1.985214-4.516874-6.135744-6.683213-11.008728-7.472182l-107.896382-16.996093c-7.922437-1.282203-15.454994 4.367471-16.737196 12.323677-1.291412 7.950066 4.112668 15.57472 12.063757 16.867156l100.079346 16.312524 156.369374 354.624716c0.412392 2.258437 1.355881 4.327562 2.679016 6.093788l28.78151 63.099107c2.326998 5.290493 7.561209 6.53995 13.345959 6.53995l426.675706 0c8.055466 0 14.5903-6.77838 14.5903-14.83794s-6.534833-14.83794-14.5903-14.83794L425.693332 641.222083l-17.156752-38.885636 413.218206 0c33.843806 0 67.564815-27.334555 73.644277-62.593594l24.991184-147.700947C923.477562 374.102327 918.813333 356.340801 907.58664 343.013261zM891.61897 389.375172l-24.991184 145.719826c-3.666506 21.319561-25.057699 38.587853-44.871977 38.587853L395.669528 573.682851l-98.650811-224.104057 566.939263 0c8.510838 0 16.081257 5.761214 21.306258 11.968589C890.934378 368.282784 893.252167 379.895263 891.61897 389.375172zM502.713496 703.253882c-34.709523 0-62.947657 28.238135-62.947657 62.947657s28.237111 62.946634 62.947657 62.946634 62.947657-28.237111 62.947657-62.946634S537.423019 703.253882 502.713496 703.253882zM502.713496 799.967574c-18.649755 0-33.767058-15.118326-33.767058-33.766035 0-18.648732 15.117302-33.767058 33.767058-33.767058 18.648732 0 33.767058 15.118326 33.767058 33.767058C536.480554 784.850272 521.362228 799.967574 502.713496 799.967574zM722.19835 703.253882c-34.709523 0-62.947657 28.238135-62.947657 62.947657s28.237111 62.946634 62.947657 62.946634c34.7085 0 62.945611-28.237111 62.945611-62.946634S756.906849 703.253882 722.19835 703.253882zM722.19835 799.967574c-18.649755 0-33.767058-15.118326-33.767058-33.766035 0-18.648732 15.117302-33.767058 33.767058-33.767058 18.648732 0 33.766035 15.118326 33.766035 33.767058C755.964384 784.850272 740.847082 799.967574 722.19835 799.967574z" p-id="7627" fill="#8a8a8a"></path></svg>