<?xml version="1.0" standalone="no"?><!DOCTYPE svg PUBLIC "-//W3C//DTD SVG 1.1//EN" "http://www.w3.org/Graphics/SVG/1.1/DTD/svg11.dtd"><svg t="1500626248203" class="icon" style="" viewBox="0 0 1024 1024" version="1.1" xmlns="http://www.w3.org/2000/svg" p-id="2431" xmlns:xlink="http://www.w3.org/1999/xlink" width="200" height="200"><defs><style type="text/css"></style></defs><path d="M1023.81568 93.96224c0-51.70688-42.06592-93.76768-93.76256-93.76768l-836.096 0c-51.70688 0-93.76768 42.06592-93.76768 93.76768l0 204.37504c0 20.1728 6.51776 39.63904 18.51392 55.69024-11.99104 16.06656-18.51392 35.59424-18.51392 55.8848l0 204.38016c0 20.16256 6.51776 39.6288 18.51392 55.68512-11.99104 16.04608-18.51392 35.51232-18.51392 55.69536l0 204.38016c0 51.70176 42.06592 93.76256 93.76768 93.76256l835.8912 0c51.70688 0 93.76768-42.0608 93.76768-93.76256l0-204.38016c0-20.19328-6.528-39.67488-18.53952-55.7312 12.01152-16.21504 18.53952-35.67616 18.53952-55.64928L1023.616 409.91232c0-20.18304-6.528-39.66464-18.53952-55.72608 12.01152-16.20992 18.53952-35.67104 18.53952-55.64928L1023.81568 93.96224zM947.49184 300.67712c-1.14688 8.60672-8.52992 15.26272-17.43872 15.26272l-836.096 0c-9.70752 0-17.60256-7.90016-17.60256-17.60256L76.35456 93.96224c0-9.70752 7.89504-17.60256 17.60256-17.60256l835.8912 0c9.70752 0 17.60256 7.90016 17.60256 17.60256l0 204.37504L947.49184 300.67712zM76.35456 409.91232c0-9.70752 7.89504-17.60256 17.60256-17.60256l835.8912 0c9.70752 0 17.60256 7.90016 17.60256 17.60256l0 204.18048 0.04608 2.33472c-1.14688 8.61184-8.52992 15.27296-17.43872 15.27296l-836.096 0c-9.70752 0-17.60256-7.90016-17.60256-17.60768L76.35968 409.91232zM76.35456 725.66784c0-9.70752 7.89504-17.60768 17.60256-17.60768l835.8912 0c9.70752 0 17.60256 7.90016 17.60256 17.60768l0 204.38016 0.04608 2.33472c-1.14688 8.6016-8.52992 15.25248-17.43872 15.25248l-836.096 0c-9.70752 0-17.60256-7.88992-17.60256-17.59232L76.35968 725.66784z" p-id="2432" fill="#26b1e5"></path><path d="M837.15072 153.22112l-243.57888 0c-22.51264 0-40.83712 18.31936-40.83712 40.84224 0 22.51264 18.31936 40.83712 40.83712 40.83712l243.57888 0c22.51776 0 40.84224-18.31936 40.84224-40.83712C877.98784 171.54048 859.66848 153.22112 837.15072 153.22112z" p-id="2433" fill="#26b1e5"></path><path d="M593.57184 552.83712l243.57888 0c22.51776 0 40.84224-18.31936 40.84224-40.83712s-18.31936-40.83712-40.84224-40.83712l-243.57888 0c-22.51264 0-40.83712 18.31936-40.83712 40.83712S571.05408 552.83712 593.57184 552.83712z" p-id="2434" fill="#26b1e5"></path><path d="M593.57184 870.77888l243.57888 0c22.51776 0 40.84224-18.31936 40.84224-40.83712 0-22.51776-18.31936-40.84224-40.84224-40.84224l-243.57888 0c-22.51264 0-40.83712 18.31936-40.83712 40.84224C552.73472 852.45952 571.05408 870.77888 593.57184 870.77888z" p-id="2435" fill="#26b1e5"></path><path d="M203.94496 194.05312m-46.08 0a9 9 0 1 0 92.16 0 9 9 0 1 0-92.16 0Z" p-id="2436" fill="#26b1e5"></path><path d="M357.54496 194.05312m-46.08 0a9 9 0 1 0 92.16 0 9 9 0 1 0-92.16 0Z" p-id="2437" fill="#26b1e5"></path><path d="M203.94496 506.37312m-46.08 0a9 9 0 1 0 92.16 0 9 9 0 1 0-92.16 0Z" p-id="2438" fill="#26b1e5"></path><path d="M357.54496 506.37312m-46.08 0a9 9 0 1 0 92.16 0 9 9 0 1 0-92.16 0Z" p-id="2439" fill="#26b1e5"></path><path d="M203.94496 823.81312m-46.08 0a9 9 0 1 0 92.16 0 9 9 0 1 0-92.16 0Z" p-id="2440" fill="#26b1e5"></path><path d="M357.54496 823.81312m-46.08 0a9 9 0 1 0 92.16 0 9 9 0 1 0-92.16 0Z" p-id="2441" fill="#26b1e5"></path></svg>