<?xml version="1.0" standalone="no"?><!DOCTYPE svg PUBLIC "-//W3C//DTD SVG 1.1//EN" "http://www.w3.org/Graphics/SVG/1.1/DTD/svg11.dtd"><svg t="1505545468073" class="icon" style="" viewBox="0 0 1024 1024" version="1.1" xmlns="http://www.w3.org/2000/svg" p-id="10579" xmlns:xlink="http://www.w3.org/1999/xlink" width="310" height="310"><defs><style type="text/css"></style></defs><path d="M543.125905 282.814204c0-17.907858-14.490016-32.397874-32.397874-32.397874L84.175121 250.41633 84.175121 120.823809l712.756303 0 0 24.298406c0 17.907858 14.490016 32.397874 32.397874 32.397874 17.907858 0 32.397874-14.491039 32.397874-32.397874L861.727173 56.028061 19.378349 56.028061 19.378349 315.212078l491.348658 0C528.635889 315.212078 543.125905 300.722062 543.125905 282.814204z" p-id="10580" fill="#26b1e5"></path><path d="M120.939443 154.911162l64.795748 0 0 64.795748-64.795748 0 0-64.795748Z" p-id="10581" fill="#26b1e5"></path><path d="M453.018677 610.18009c0-17.907858-14.490016-32.397874-32.397874-32.397874L84.175121 577.782216 84.175121 448.189695l332.901972 0c17.907858 0 32.397874-14.490016 32.397874-32.397874s-14.490016-32.397874-32.397874-32.397874L19.378349 383.393947 19.378349 642.577964l401.242454 0C438.528662 642.577964 453.018677 628.087948 453.018677 610.18009z" p-id="10582" fill="#26b1e5"></path><path d="M120.939443 482.264768l64.795748 0 0 64.795748-64.795748 0 0-64.795748Z" p-id="10583" fill="#26b1e5"></path><path d="M620.134813 903.787104 84.175121 903.787104 84.175121 774.195607l374.348943 0c17.907858 0 32.397874-14.491039 32.397874-32.397874s-14.491039-32.397874-32.397874-32.397874L19.378349 709.399859 19.378349 968.582853l600.75544 0c17.907858 0 32.397874-14.491039 32.397874-32.397874S638.041648 903.787104 620.134813 903.787104z" p-id="10584" fill="#26b1e5"></path><path d="M120.939443 808.269657l64.795748 0 0 64.795748-64.795748 0 0-64.795748Z" p-id="10585" fill="#26b1e5"></path><path d="M1000.814951 379.466498C930.22115 375.986233 778.952958 268.12976 778.952958 268.12976l-2.523473 0c0 0-147.115616 107.856473-217.706347 111.336738-5.885034 40.59251 3.804652 291.095821 53.385884 390.836453 32.825616 67.263963 133.741004 127.143749 163.899884 142.358265 0 0 0.905626 1.134847 2.807952 1.134847 0.830925 0 1.851161-0.217964 3.072989-0.842181 38.947034-19.948331 126.036531-67.263963 165.534104-142.650931C1002.053152 656.649448 1006.585375 421.036265 1000.814951 379.466498zM890.028753 740.231051c-18.291598 34.913161-55.375192 68.564585-110.411669 100.263541-41.549302-25.252127-93.072769-65.401546-109.485577-99.033527-32.31908-65.017806-46.607504-229.451856-48.229444-310.897819 55.114249-19.833721 115.635647-57.071833 156.251693-84.47188 41.676192 27.446096 104.036471 65.005526 160.064532 84.783988C937.794639 510.011716 926.057317 665.203264 890.028753 740.231051z" p-id="10586" fill="#26b1e5"></path><path d="M744.601592 458.978413l0 80.994686L690.87904 539.973098c-17.907858 0-32.397874 14.490016-32.397874 32.397874 0 17.907858 14.491039 32.397874 32.397874 32.397874l53.722552 0 0 105.642039c0 17.907858 14.491039 32.397874 32.397874 32.397874 17.907858 0 32.397874-14.491039 32.397874-32.397874L809.397341 604.76987l53.722552 0c17.907858 0 32.397874-14.491039 32.397874-32.397874 0-17.907858-14.491039-32.397874-32.397874-32.397874l-53.722552 0 0-80.994686c0-17.907858-14.490016-32.397874-32.397874-32.397874C759.091608 426.580538 744.601592 441.071577 744.601592 458.978413z" p-id="10587" fill="#26b1e5"></path></svg>