<?xml version="1.0" standalone="no"?><!DOCTYPE svg PUBLIC "-//W3C//DTD SVG 1.1//EN" "http://www.w3.org/Graphics/SVG/1.1/DTD/svg11.dtd"><svg t="1505545357873" class="icon" style="" viewBox="0 0 1024 1024" version="1.1" xmlns="http://www.w3.org/2000/svg" p-id="9348" xmlns:xlink="http://www.w3.org/1999/xlink" width="200" height="200"><defs><style type="text/css"></style></defs><path d="M982.1 389.2c-2.4-8.8-5.1-17.5-8-26.1-0.2-0.5-0.4-1-0.5-1.6-85.6 89-235.2 189.7-351.9 258.7-0.9-7.5-3.1-14.8-6.7-21.7-5-9.5-12.1-17.1-20.5-22.7 114.7-67.6 217.7-139.5 292-204.1 56.1-48.7 83.1-82.4 95.2-103 1.8-3.1 3.3-5.9 4.5-8.4 13.1-25.4 27.1-60.6 22.1-62.8-30.5-12.3-67.7-9.2-126.1 5.3C764 67.8 578.1 11.2 404 58.7 153.4 126.9 5.2 386.3 73.4 636.8c2.4 8.9 5.2 17.7 8.1 26.5-42.8 44-65.5 77.3-68.2 108.1 0 4.9 40.1 10.4 62.8 11.9 3 0.3 6.6 0.6 11 0.6 3.6 0 7.5-0.2 11.4-0.5 1.4-0.1 2.9-0.2 4.3-0.3 2.7-0.2 5.4-0.6 8.2-0.9 44.5-5.6 107.7-25 180.9-54.7l22.4 29.4 5.2 15.8c-54.6 22.4-104.1 39.3-146.5 50 0.4 0.5 0.9 1.1 1.3 1.7C264.9 927.1 393.6 984 527.2 984c41.3 0 83.2-5.5 124.4-16.7 125-34.1 226.2-117.4 286.4-224.4l0.3 0.1c0.4-0.7 1-2 1.7-3.7 46.5-84.4 67.7-183.1 55.2-283.9-2.9-22.5-7.2-44.8-13.1-66.2z m-772.8 35.7c8 23.3 16.2 47.5 3.9 70.4-24 44.8-48.1 55.7-78.5 69.5-6.7 3.1-13.8 6.3-21.1 10C93 437.2 142.7 301.5 239.2 209.4c11.9 34.5 21.1 93.1-26.7 141.5-21 22.1-11.2 50.8-3.2 74z m279.1 4.4c2.9-9.7 6.6-16.3 10.5-23.3 12.2-21.7 20.2-41.6 3-83.5-14.9-36.4 9.1-68.9 21.2-75.7 27.4-15.3 30.2-28.6 30-55.3-0.1-7.5-0.1-16.8 0.6-29.7 1.4-24.9 33.9-49.2 52.4-60.2 89.4 17 172.5 63 234.9 133.2 18.5 19.4 2 64.1-5.3 78.3l-1.6 3.7c-5.3 15.6-28.4 55.5-62.9 72.5-18.4 9.1-37.1 10.2-57.1 3.4-47.1-16.1-62.7-15.3-88.2 4.3-4.8 3.7-10.2 7.9-18.4 12.4-74.6 41.8-109.5 40.8-117.5 34.4-3.3-2.6-3.1-9.3-1.6-14.5z m49.1 239.5l-22 11.6-7.3 107.4c-0.4 6.2-2.2 7-2.2 7s-19.2 10.1-26.1 13.8c-7 3.7-8-5.3-8-5.3l-19.2-89.8-51.9 27.3-2.4 29c-1 6.1-0.4 5.4-3 6.8 0 0-14.5 7.7-18.7 9.9-5.9 3.1-7.9-3-7.9-3l-15.6-47.1-30-39.4s-3.9-5.1 2-8.2c4.2-2.2 18.7-9.9 18.7-9.9 2.6-1.4 1.7-1.3 7.3 1.4l25.3 14.5 51.9-27.3-63.2-66.6s-6.8-5.9 0.2-9.6c7-3.7 26.1-13.8 26.1-13.8s1.6-1 7 2.2l92.8 54.7 22-11.6s50-29.6 63.4-4c13.4 25.5-39.2 50-39.2 50z m355.7 47.8c-25.3 45.2-58.8 85.6-98.9 119-15.7-10.2-37.6-18.8-65.3-18.8-8.6 0-17.7 0.6-27.4 1.3-22.8 1.6-53.9 3.8-63.8-6.7-4.9-5.2-6.5-16.8-4.5-32.5 0.7-5.3 2.5-19.3 4.2-26.9 17.8-4.5 50.2-14 111.4-80.9 56.9-62.3 92.3-86.3 110.8-95.6 1 20.1 8.8 46.1 39.5 72.5 12.8 10.9 3 48.1-6 68.6z" fill="#26b1e5" p-id="9349"></path></svg>