<?xml version="1.0" standalone="no"?><!DOCTYPE svg PUBLIC "-//W3C//DTD SVG 1.1//EN" "http://www.w3.org/Graphics/SVG/1.1/DTD/svg11.dtd"><svg t="1500967225270" class="icon" style="" viewBox="0 0 1024 1024" version="1.1" xmlns="http://www.w3.org/2000/svg" p-id="4459" xmlns:xlink="http://www.w3.org/1999/xlink" width="200" height="200"><defs><style type="text/css"></style></defs><path d="M889.329834 370.044918 785.420253 370.044918l0-64.764026c0-35.94056-24.762987-71.335698-61.289901-71.335698L174.569898 233.945193c-37.219693 0-71.694879 35.994796-71.694879 71.335698L102.875019 636.919081c0 36.313044 35.736922 64.678068 71.694879 64.678068l186.317453 0-40.815591 13.492292-0.874927 1.156336c-19.2269 6.972808-30.703279 18.22099-30.703279 34.761712 0 19.533892 15.118326 38.593993 35.354206 38.593993l251.833609 0c20.234857 0 35.354206-18.625196 35.354206-38.158065 0-17.850553-10.485819-30.419823-31.507598-37.192064l-42.61661-12.653181 141.062759 0 0 39.873126c0 20.093641 18.436908 28.688389 38.531572 28.688389l172.825161 0c20.094664 0 32.190143-8.593725 32.190143-28.688389l0-327.457983C921.519977 393.917628 909.424498 370.044918 889.329834 370.044918zM771.081687 399.720797l54.575989 0c5.02341 0 9.096169 4.697999 9.096169 9.721409s-4.072759 9.721409-9.096169 9.721409l-54.575989 0c-5.02341 0-9.096169-4.697999-9.096169-9.721409S766.058276 399.720797 771.081687 399.720797zM571.491952 743.68164c12.254092 3.953032 12.254092 3.111874 12.254092 6.567579 0 6.928806-5.991458 9.676383-8.065699 9.676383L323.846736 759.925602c-2.074242 0-8.065699-2.747577-8.065699-9.676383 0-6.351662 8.31027-8.033977 12.316513-9.53926l121.624035-33.903158L571.491952 743.68164zM677.973102 414.012292l0 258.932284L174.569898 672.944576c-21.048385 0-42.018999-14.631232-42.018999-36.025495L132.550898 305.280892c0-20.293185 19.847024-41.659819 42.018999-41.659819l549.560454 0c21.580504 0 31.614022 20.678972 31.614022 41.659819l0 64.764026-39.239699 0C696.41001 370.044918 677.973102 393.917628 677.973102 414.012292zM800.874223 756.261143c-14.387685 0-26.051329-11.663644-26.051329-26.051329 0-14.387685 11.663644-26.051329 26.051329-26.051329 14.387685 0 26.051329 11.663644 26.051329 26.051329C826.925552 744.597499 815.261908 756.261143 800.874223 756.261143zM891.844098 692.38637l-185.218422 0 0-253.779937 185.218422 0L891.844098 692.38637z" p-id="4460" fill="#8a8a8a"></path></svg>