<?xml version="1.0" standalone="no"?><!DOCTYPE svg PUBLIC "-//W3C//DTD SVG 1.1//EN" "http://www.w3.org/Graphics/SVG/1.1/DTD/svg11.dtd"><svg t="1505533110492" class="icon" style="" viewBox="0 0 1025 1024" version="1.1" xmlns="http://www.w3.org/2000/svg" p-id="4283" xmlns:xlink="http://www.w3.org/1999/xlink" width="200.1953125" height="200"><defs><style type="text/css"></style></defs><path d="M512.076877 927.903904c-108.355395 0-210.227508-42.195155-286.848128-118.810651-76.615495-76.620621-118.872152-178.492733-118.872152-286.848128 0-108.360521 42.195155-210.232633 118.872152-286.843003 76.605245-76.620621 178.477357-118.815776 286.848128-118.815776 108.370771 0 210.227508 42.195155 286.848128 118.815776 76.60012 76.61037 118.815776 178.487608 118.815776 286.843003 0 108.355395-42.20028 210.227508-118.815776 286.848128-76.620621 76.61037-178.487608 118.810651-286.848128 118.810651z m0-782.483604c-207.777698 0-376.8197 169.047127-376.8197 376.82995 0 207.777698 169.047127 376.8197 376.8197 376.8197 207.782823 0 376.8197-169.042002 376.8197-376.8197-0.005125-207.787948-169.036877-376.82995-376.8197-376.82995z m-18.891211 565.736937v-84.118678H366.456697v-19.183344h126.728969v-81.069229H366.456697v-18.65033H485.195596L353.377377 318.393273h42.328409c59.020941 90.432833 95.44008 148.649129 108.258018 173.0396l3.28008 6.227027h15.975015l3.044324-7.026547c4.212853-9.747988 16.323524-30.356116 35.983504-61.25037l71.864504-110.994835h38.315436l-133.094375 189.742383h115.617698v18.65033h-122.203483v81.069229h122.203483v19.183343h-122.203483v84.118679h-39.560841v0.005125z" fill="#8a8a8a" p-id="4284"></path></svg>