<?xml version="1.0" encoding="utf-8"?>
<!-- Generator: Adobe Illustrator 21.0.0, SVG Export Plug-In . SVG Version: 6.00 Build 0)  -->
<svg version="1.1" id="图层_1" xmlns="http://www.w3.org/2000/svg" xmlns:xlink="http://www.w3.org/1999/xlink" x="0px" y="0px"
	 width="220px" height="220px" viewBox="0 0 220 220" style="enable-background:new 0 0 220 220;" xml:space="preserve">
<style type="text/css">
	.st0{fill-rule:evenodd;clip-rule:evenodd;fill:#B2E8F7;}
	.st1{fill-rule:evenodd;clip-rule:evenodd;fill:url(#SVGID_1_);}
</style>
<g>
	<g>
		<path class="st0" d="M24,169h2v-2h-2V169z M53,185c-1.7,0-3,1.3-3,3c0,1.7,1.3,3,3,3s3-1.3,3-3C56,186.3,54.7,185,53,185z M44,134
			H0v2h44V134z M43,55c1.7,0,3-1.3,3-3c0-1.7-1.3-3-3-3s-3,1.3-3,3C40,53.7,41.3,55,43,55z M162,35h2v-4h4v-2h-4v-4h-2v4h-4v2h4V35z
			 M71.5,64H53v2h16.2C70,65.3,70.7,64.6,71.5,64z M55.5,85H28v2h26.6C54.9,86.3,55.2,85.7,55.5,85z M163.1,82H198v-2h-36
			C162.3,80.7,162.7,81.3,163.1,82z M36,157v2h39.4c-0.9-0.6-1.8-1.3-2.7-2H36z M156,53v2h64v-2H156z M170,166h-2v4h-4v2h4v4h2v-4h4
			v-2h-4V166z M78,42h26v-2H78V42z M96,26h46v-2H96V26z M26,116h2v-4h4v-2h-4v-4h-2v4h-4v2h4V116z"/>
	</g>
</g>
<g>
	<g>
		<linearGradient id="SVGID_1_" gradientUnits="userSpaceOnUse" x1="152.4262" y1="152.4262" x2="67.5738" y2="67.5738">
			<stop  offset="0" style="stop-color:#006EFF"/>
			<stop  offset="1" style="stop-color:#00C8DF"/>
		</linearGradient>
		<path class="st1" d="M163,127.5c-2.8,0-5,2.2-5,5c0,1.4,0.6,2.7,1.5,3.6c-9.4,17.8-28,29.9-49.5,29.9c-30.3,0-54.9-24-55.9-54H76
			v0.1L88,126h13.4l12-32H88l-11.9,14H50v4h0.1c1.1,32.2,27.5,58,59.9,58c23.2,0,43.4-13.2,53.4-32.5c2.6-0.2,4.6-2.3,4.6-5
			C168,129.7,165.8,127.5,163,127.5z M94,98h5.4l-10,12l10,12H94l-10-12L94,98z M70.2,120h-4.1c4.5,20,22.5,35,43.9,35
			c15.2,0,28.6-7.5,36.7-19h-5c-7.5,9.2-18.9,15-31.7,15C90.8,151,74.7,137.8,70.2,120z M169.9,108c-1.1-32.2-27.5-58-59.9-58
			c-22.4,0-42,12.3-52.3,30.6c-0.2,0-0.5-0.1-0.7-0.1c-2.8,0-5,2.2-5,5s2.2,5,5,5s5-2.2,5-5c0-1-0.3-2-0.9-2.8
			C70.7,65.6,89,54,110,54c30.3,0,54.9,24,55.9,54h-22L132,94h-13.5l-12,32H132l12-14v0h26L169.9,108L169.9,108z M125.4,122H120
			l10-12l-10-12h5.4l10,12L125.4,122z M110,69c19.6,0,35.9,13.7,40,32h4.1c-4.2-20.5-22.3-36-44.1-36c-15.2,0-28.6,7.5-36.7,19h5
			C85.8,74.8,97.2,69,110,69z"/>
	</g>
</g>
</svg>
