<?xml version="1.0" standalone="no"?><!DOCTYPE svg PUBLIC "-//W3C//DTD SVG 1.1//EN" "http://www.w3.org/Graphics/SVG/1.1/DTD/svg11.dtd"><svg t="1500864179627" class="icon" style="" viewBox="0 0 1024 1024" version="1.1" xmlns="http://www.w3.org/2000/svg" p-id="1994" xmlns:xlink="http://www.w3.org/1999/xlink" width="200" height="200"><defs><style type="text/css"></style></defs><path d="M248.448 645.248a25.664 25.664 0 0 0 25.728-25.664V289.024h106.88v330.56a25.664 25.664 0 0 0 51.456 0V267.968c0-0.832-0.32-1.536-0.448-2.304 0.128-0.832 0.448-1.472 0.448-2.304a25.664 25.664 0 0 0-25.728-25.728H248.448a25.792 25.792 0 0 0-25.728 25.728c0 0.832 0.384 1.536 0.448 2.304 0 0.768-0.384 1.472-0.384 2.304v351.616c0 14.208 11.52 25.664 25.664 25.664z" fill="#ffffff" p-id="1995"></path><path d="M347.136 611.584c-0.576-0.768-1.536-1.088-2.24-1.792 6.272-26.816 8.256-46.144 8.448-49.024V338.944a25.728 25.728 0 1 0-51.456 0l0.128 219.52c-0.128 1.28-12.416 129.92-93.952 188.288a25.792 25.792 0 0 0 29.952 41.856c44.544-31.936 72.064-78.592 89.088-121.472l100.352 117.248a25.728 25.728 0 0 0 39.104-33.408L347.136 611.584zM496.512 337.216h280.64a25.792 25.792 0 1 0 0-51.456h-103.552a24.96 24.96 0 0 0-2.24-7.552l-27.776-53.568a25.792 25.792 0 0 0-34.688-10.944 25.792 25.792 0 0 0-10.944 34.752l19.456 37.376H496.512a25.728 25.728 0 0 0 0 51.392zM798.592 466.88h-86.208l46.016-75.52a25.728 25.728 0 0 0-43.904-26.752l-53.568 87.808a24.64 24.64 0 0 0-3.264 14.4h-186.88a25.728 25.728 0 0 0 0 51.392h327.872a25.728 25.728 0 1 0-0.064-51.328z" fill="#ffffff" p-id="1996"></path><path d="M527.68 356.224a25.856 25.856 0 0 0-7.936 35.584l30.016 47.104a25.792 25.792 0 0 0 35.52 7.872 25.664 25.664 0 0 0 7.872-35.456L563.2 364.16a25.792 25.792 0 0 0-35.52-7.936zM751.488 577.28H513.6a25.664 25.664 0 0 0-25.664 25.728v160.576c0 14.144 11.456 25.792 25.664 25.792h237.888a25.856 25.856 0 0 0 25.792-25.792V603.008a25.856 25.856 0 0 0-25.792-25.728z m-25.728 160.576H539.264V628.672h186.496v109.184z" fill="#ffffff" p-id="1997"></path><path d="M512 2.56C231.104 2.56 2.56 231.104 2.56 512c0 280.896 228.544 509.44 509.504 509.44 280.896 0 509.44-228.544 509.44-509.44C1021.44 231.104 792.896 2.56 512 2.56z m0 953.344A444.416 444.416 0 0 1 68.096 512 444.352 444.352 0 0 1 512 68.096 444.48 444.48 0 0 1 955.904 512 444.416 444.416 0 0 1 512 955.904z" fill="#ffffff" p-id="1998"></path></svg>