<?xml version="1.0" standalone="no"?><!DOCTYPE svg PUBLIC "-//W3C//DTD SVG 1.1//EN" "http://www.w3.org/Graphics/SVG/1.1/DTD/svg11.dtd"><svg t="1512273165351" class="icon" style="" viewBox="0 0 1024 1024" version="1.1" xmlns="http://www.w3.org/2000/svg" p-id="2753" xmlns:xlink="http://www.w3.org/1999/xlink" width="200" height="200"><defs><style type="text/css"></style></defs><path d="M130.7424 578.1376c-32.8 81.096-38.2272 158.4208-11.8096 172.7872 18.2752 9.9696 46.7312-12.84 73.5152-54.3312 10.6272 45.4416 36.8208 86.2144 74.2784 119.176-39.2224 15.176-64.9184 39.9632-64.9184 67.984 0 46.1616 69.3968 83.4304 154.9856 83.4304 77.2208 0 141.1888-30.264 152.992-70.1408h18.368c12.0336 39.8752 75.8624 70.1408 153.1744 70.1408 85.6832 0 154.9856-37.2704 154.9856-83.4304 0-28.0208-25.6496-52.6272-64.9648-67.984 37.3232-32.96 63.696-73.7312 74.2368-119.176 26.7792 41.4928 55.1008 64.3024 73.4688 54.3312 26.552-14.3664 21.2592-91.6912-11.856-172.7872-25.872-63.4944-60.9328-110.3728-87.6704-120.88 0.3616-3.8608 0.6784-8.1296 0.6784-12.2144 0-24.608-6.6048-47.328-17.8656-65.8288 0.2256-1.4816 0.2256-2.8736 0.2256-4.3536 0-11.36-2.5792-21.9136-7.0128-31.0304-6.7376-165.2896-109.744-296.72-276.5344-296.72-166.7488 0-269.8912 131.432-276.632 296.7216-4.3408 9.2496-7.0112 19.848-7.0112 31.1648 0 1.4832 0 2.8736 0.1808 4.3568-11.0368 18.3648-17.6432 41.0848-17.6432 65.7824 0 4.1328 0.224 8.264 0.4976 12.304-26.6432 10.4144-61.8384 57.2032-87.6688 120.6976z" fill="#ffffff" p-id="2754"></path></svg>