<?xml version="1.0" standalone="no"?><!DOCTYPE svg PUBLIC "-//W3C//DTD SVG 1.1//EN" "http://www.w3.org/Graphics/SVG/1.1/DTD/svg11.dtd"><svg t="1503823823174" class="icon" style="" viewBox="0 0 1024 1024" version="1.1" xmlns="http://www.w3.org/2000/svg" p-id="1929" xmlns:xlink="http://www.w3.org/1999/xlink" width="200" height="200"><defs><style type="text/css"></style></defs><path d="M512 938.666667C276.394667 938.666667 85.333333 747.605333 85.333333 512 85.333333 276.352 276.394667 85.333333 512 85.333333c235.648 0 426.666667 191.018667 426.666667 426.666667C938.666667 747.605333 747.648 938.666667 512 938.666667zM512 768c47.146667 0 85.333333-38.229333 85.333333-85.333333s-38.186667-85.333333-85.333333-85.333333c-47.104 0-85.333333 38.229333-85.333333 85.333333S464.896 768 512 768zM512 170.666667c-188.501333 0-341.333333 152.832-341.333333 341.333333 0 45.312 9.002667 88.405333 25.045333 128l151.68 0c19.029333-73.514667 85.205333-128 164.608-128 32 0 61.653333 9.173333 87.125333 24.533333l94.890667-94.848c16.682667-16.64 43.648-16.64 60.330667 0 16.682667 16.682667 16.682667 43.690667 0 60.373333l-95.573333 95.530667c7.637333 13.269333 13.994667 27.264 17.92 42.410667l151.68 0C844.330667 600.405333 853.333333 557.312 853.333333 512 853.333333 323.498667 700.501333 170.666667 512 170.666667z" p-id="1930" fill="#26b1e5"></path><path d="M512 256c63.488 0 120.832 23.978667 165.546667 62.208l-48.64 69.461333C598.272 358.869333 557.354667 340.906667 512 340.906667c-88.021333 0-159.658667 66.730667-169.173333 152.234667l-81.92-29.781333C283.690667 345.258667 387.285333 256 512 256z" p-id="1931" fill="#26b1e5"></path></svg>