<?xml version="1.0" standalone="no"?><!DOCTYPE svg PUBLIC "-//W3C//DTD SVG 1.1//EN" "http://www.w3.org/Graphics/SVG/1.1/DTD/svg11.dtd"><svg class="icon" width="200px" height="200.00px" viewBox="0 0 1024 1024" version="1.1" xmlns="http://www.w3.org/2000/svg"><path d="M610.688 842.667v-48h273.344v48h-273.344zM610.688 682.667h273.344v48h-273.344v-48zM352.512 122.667h303.744l45.568 80h-394.624zM413.248 730.667h-258.112v-48h258.176v48zM367.744 298.667h273.344v48h-273.344v-48zM641.088 458.667h-273.344v-48h273.344v48zM413.312 842.667h-258.176v-48h258.176v48z" fill="#13227a" /><path d="M534.784 938.667v-352h410.048l-53.184-80h-118.208l2.176-16h123.648l60.736 96v352h-425.216zM944.832 602.667h-394.88v320h394.816v-320zM884.096 730.667h-273.408v-48h273.344v48zM868.928 698.667h-243.008v16h243.2v-16zM884.096 842.667h-273.408v-48h273.344v48zM868.864 810.667h-242.944v16h243.2v-16zM291.776 202.667l60.736-96h303.744l60.544 96v352h-425.024v-352zM307.2 538.667h394.816v-320h-394.816v320zM701.824 202.667l-53.12-80h-288.576l-52.928 80h394.88zM367.744 410.667h273.344v48h-273.344v-48zM382.912 442.667h243.2v-16h-243.2v16zM367.744 298.667h273.344v48h-273.344v-48zM382.912 330.667h243.2v-16h-243.2v16zM79.168 586.667h-15.168l60.736-96h123.648l2.176 16h-118.208zM489.216 938.667h-425.216v-352h425.216v352zM474.048 602.667h-394.88v320h394.88v-320zM413.312 730.667h-258.176v-48h258.176v48zM398.144 698.667h-227.84v16h227.776v-16zM413.312 842.667h-258.176v-48h258.176v48zM398.080 810.667h-227.776v16h227.776v-16z" fill="#13227a" /></svg>