<?xml version="1.0" standalone="no"?><!DOCTYPE svg PUBLIC "-//W3C//DTD SVG 1.1//EN" "http://www.w3.org/Graphics/SVG/1.1/DTD/svg11.dtd"><svg class="icon" width="200px" height="200.00px" viewBox="0 0 1024 1024" version="1.1" xmlns="http://www.w3.org/2000/svg"><path d="M511.68801 11.651075S286.433901 304.869785 112.962346 179.944374C112.962346 394.841972 63.76892 841.466498 511.68801 1012.996207" fill="#1296db" /><path d="M507.804319 1023.352718C89.660197 862.17952 100.016708 471.868521 100.016708 238.199747V157.289507l18.123894 12.945638C281.902928 287.393173 500.684217 7.120101 502.626063 4.530973l18.123894 14.240203C511.68801 30.42225 301.321386 300.338812 124.613421 200.657396v38.189633C120.082448 466.042984 112.962346 845.997472 516.218984 1001.992415z" fill="#1296db" /><path d="M511.68801 11.651075s225.901391 293.21871 398.725664 168.293299c0 214.897598 49.193426 659.580278-398.725664 833.051833" fill="#1296db" /><path d="M516.218984 1023.352718l-8.414665-21.360303c402.609355-155.994943 396.136536-535.949431 392.252844-763.145386V200.657396C722.701917 300.338812 512.335292 30.42225 502.626063 18.771176l18.771176-14.240203s220.723135 282.8622 383.190898 166.351454l18.123893-12.945638v80.91024c4.530973 233.021492 11.003793 623.332491-406.493046 784.505689z" fill="#1296db" /><path d="M511.68801 1024a11.651075 11.651075 0 0 1-11.651074-11.651075V11.651075a11.651075 11.651075 0 0 1 23.302149 0v1001.345132a11.651075 11.651075 0 0 1-11.651075 11.003793z" fill="#1296db" /></svg>