<?xml version="1.0" standalone="no"?><!DOCTYPE svg PUBLIC "-//W3C//DTD SVG 1.1//EN" "http://www.w3.org/Graphics/SVG/1.1/DTD/svg11.dtd"><svg class="icon" width="200px" height="200.00px" viewBox="0 0 1024 1024" version="1.1" xmlns="http://www.w3.org/2000/svg"><path d="M720.162 415.686c-46.604 0-84.508-37.904-84.508-84.508s37.904-84.508 84.508-84.508 84.508 37.904 84.508 84.508c-0.621 46.604-38.525 84.508-84.508 84.508zM720.162 294.517c-20.505 0-37.283 16.778-37.283 37.283s16.778 37.283 37.283 37.283 37.283-16.778 37.283-37.283-17.398-37.283-37.283-37.283zM500.193 745.638c-3.728 0-8.078 0.621-12.428 0.621-33.554 0-95.693-6.834-137.947-52.195-31.069-33.554-45.982-81.401-43.497-142.297h-228.667l235.503-236.124 152.86-19.263c9.942-16.778 42.875-65.245 106.256-114.956 44.117-34.175 94.449-62.138 148.51-82.022 67.731-24.854 142.917-37.283 223.075-37.283 10.563 0 21.748 0 32.933 0.621l9.942 0.621 1.243 9.942c0.621 3.107 9.321 79.536-14.913 181.442-14.291 59.652-37.283 115.577-68.973 167.151-37.904 62.138-87.615 116.819-148.51 162.18v134.218l-255.387 234.881v-207.541zM511.379 682.879c27.962 0 50.954 22.37 50.954 50.332v81.401l131.732-115.577v-119.926c0-16.156 7.457-31.069 20.505-40.39 188.277-138.567 212.512-331.815 213.755-413.217-297.019 6.213-406.381 198.842-410.731 206.298-7.457 14.291-21.748 23.613-37.904 25.476l-137.947 17.398-114.956 114.956h91.343c13.67 0 27.341 5.593 36.661 16.156 9.942 9.942 14.291 23.613 13.67 37.904-3.107 47.225 6.834 84.508 29.204 108.119 20.505 21.748 50.954 32.933 90.721 32.933 7.457 0 14.291-0.621 18.641-1.243 1.863 0 3.728-0.621 4.35-0.621zM248.535 858.108l-172.743 44.739 83.265-127.382-124.276-21.127 214.375-166.53-0.621 24.234c0 0.621 0 34.797 21.748 73.945 29.826 52.195 85.749 89.478 162.801 108.119l19.884 4.971-162.18 162.18-42.254-103.149zM255.371 794.107c20.505 0 39.147 12.428 47.225 31.691l10.563 26.098 25.476-25.476c-33.554-16.156-62.758-36.661-85.749-61.516-18.641-19.884-34.175-42.254-45.361-66.487l-22.991 18.020 3.107 0.621c16.778 3.107 31.069 13.67 37.904 29.826s5.593 34.175-3.728 47.845l-5.593 8.078 29.204-7.457c1.863-0.621 5.593-1.243 9.942-1.243z" fill="#13227a" /></svg>