<?xml version="1.0" standalone="no"?><!DOCTYPE svg PUBLIC "-//W3C//DTD SVG 1.1//EN" "http://www.w3.org/Graphics/SVG/1.1/DTD/svg11.dtd"><svg class="icon" width="200px" height="200.00px" viewBox="0 0 1024 1024" version="1.1" xmlns="http://www.w3.org/2000/svg"><path d="M904.793526 510.516206c0-217.426985-176.383196-393.675104-393.962653-393.675104-217.593783 0-393.983119 176.249143-393.983119 393.675104 0 200.843284 150.509922 366.550327 344.966753 390.664537 10.959609 2.308579 24.315802 3.653203 40.220027 3.653203 4.462638 0 8.766664-0.239454 12.93152-0.663102C730.642161 901.958456 904.793526 726.574007 904.793526 510.516206L904.793526 510.516206zM848.467683 516.084015c-1.144056-19.640316-3.730974-38.868239-7.68503-57.551764 0.345877-6.670933 0.442068-12.994965 0.270153-18.871813 4.876054 22.849404 7.453762 46.549176 7.453762 70.855768C848.506569 512.381693 848.488149 514.236947 848.467683 516.084015L848.467683 516.084015zM173.130617 510.516206c0-23.858384 2.486634-47.140647 7.198959-69.605288 14.582113 15.59621 48.952922 15.230889 57.335846-8.074909 14.999622 8.945743 35.154661 10.56666 35.154661 28.437679 0 58.956763 2.096754 122.178667 55.677067 123.158994 1.5104 0.020466 29.879518 10.744715 43.38409 45.765323 4.665253 12.099572 23.131837 0 43.379996 0 10.113335 0 0 17.033955 0 53.863768 0 36.685527 79.097476 93.175099 79.097476 93.175099-0.370437 24.276916 0.630357 43.918255 2.650363 59.605539-17.851577-0.327458-32.900318 2.038426-44.716434 6.060019C293.688367 815.20051 173.130617 676.934446 173.130617 510.516206L173.130617 510.516206zM593.963245 837.648778c-1.750877-8.570189-9.416464-13.263072-23.391756-9.589402 11.157107-47.477314 16.571421-74.082252 39.8588-94.270037 33.663704-29.191856 4.001127-61.664432-21.632693-57.837266-20.188808 3.049452-7.42511-25.007557-25.459858-26.566052-18.024515-1.50119-41.570791-37.368072-67.512626-49.708122-13.754259-6.52153-27.26804-24.02723-48.482201-24.815175-18.804275-0.731664-46.279023 15.899108-46.279023 3.078105 0-41.274032-4.179183-70.733994-5.039783-82.492806-0.692778-9.454326-6.175653-3.188622 19.237133-2.573615 13.836123 0.370437 7.079232-27.78788 20.771069-28.884864 13.44215-1.063215 45.485961 12.585643 53.651944 7.14677 7.579629-5.064342 55.743582 126.424364 55.743582 21.732977 0-12.421914-6.434549-34.015721 0-45.783743 25.450648-46.485731 49.266054-84.377736 47.121204-89.917916-1.202385-3.115967-26.028816-5.698792-45.880957 0.966001-6.703679 2.236947 2.12643 12.729929-7.491625 14.976086-36.06438 8.324596-67.926042-9.729595-56.768935-26.690896 11.42726-17.385972 52.824089-7.584746 56.450686-42.461067 2.077312-19.976984 3.817955-43.120077 4.972245-60.312644 48.535413 7.588839 43.196825-62.986543-28.980032-70.53752 145.999189 1.702782 269.711791 95.987145 315.101561 226.837308-2.288113-2.091638-4.963035-3.366677-8.05035-3.673669-21.814842-54.498218-74.774007-15.063067-56.806797 33.005718-96.252181 73.995271-71.609944 125.597533-39.993876 155.155732 16.639982 15.533788 32.510438 38.887682 42.830481 55.67195-11.234879 32.789801 41.426505 19.650549 67.406203-35.973306C802.30941 718.717062 710.125895 808.264541 593.963245 837.648778L593.963245 837.648778zM593.963245 837.648778" fill="#13227a" /></svg>