<?xml version="1.0" standalone="no"?><!DOCTYPE svg PUBLIC "-//W3C//DTD SVG 1.1//EN" "http://www.w3.org/Graphics/SVG/1.1/DTD/svg11.dtd"><svg class="icon" width="200px" height="200.00px" viewBox="0 0 1024 1024" version="1.1" xmlns="http://www.w3.org/2000/svg"><path d="M512 14.4C236.8 14.4 14.4 236.8 14.4 512c0 275.2 222.4 497.6 497.6 497.6S1009.6 787.2 1009.6 512C1009.6 236.8 787.2 14.4 512 14.4zM512 977.6c-256 0-464-208-464-464C48 256 256 48 512 48c256 0 464 208 464 464C976 768 768 977.6 512 977.6zM620.8 540.8l-81.6 0c-1.6 59.2-17.6 99.2-48 121.6-28.8 22.4-80 41.6-153.6 56 12.8 19.2 25.6 41.6 40 68.8 94.4-20.8 160-52.8 196.8-96C633.6 720 692.8 750.4 752 784l48-70.4c-73.6-32-139.2-59.2-193.6-80C614.4 608 619.2 576 620.8 540.8zM352 312c56-1.6 116.8-4.8 179.2-8l0 43.2-158.4 0 0 65.6 158.4 0 0 40-140.8 0L390.4 656l75.2 0 0-137.6 216 0L681.6 656l75.2 0L756.8 452.8l-147.2 0 0-40 166.4 0 0-65.6L611.2 347.2l0-48 177.6-12.8L752 214.4c-163.2 16-323.2 24-480 24l0 249.6c0 104-17.6 182.4-51.2 238.4 27.2 22.4 49.6 43.2 65.6 60.8 43.2-65.6 64-163.2 64-296L350.4 312z" fill="#13227a" /></svg>