<?xml version="1.0" standalone="no"?><!DOCTYPE svg PUBLIC "-//W3C//DTD SVG 1.1//EN" "http://www.w3.org/Graphics/SVG/1.1/DTD/svg11.dtd"><svg class="icon" width="200px" height="200.00px" viewBox="0 0 1024 1024" version="1.1" xmlns="http://www.w3.org/2000/svg"><path d="M610.1248 211.16416c-4.67968 0-9.20576 0.67072-13.696 1.37728-12.49792-40.43264-49.73568-70.03136-94.2592-70.03136-36.93568 0-68.736 20.42368-85.85216 50.3552a63.22176 63.22176 0 0 0-12.16-1.23392c-34.4576 0-62.32576 26.88-64.4864 60.79488-31.5136 5.62688-55.47008 33.0496-55.47008 66.19648 0 37.20704 30.1568 67.3792 67.39456 67.3792 36.88448 0 224.58368-2.3808 258.52928-2.3808 47.6416 0 86.2208-38.60992 86.2208-86.2208 0-47.60576-38.5792-86.23616-86.2208-86.23616zM343.55712 706.65728c-4.69504 0-9.22112 0.67072-13.696 1.37728-12.51328-40.43264-49.73568-70.03136-94.27456-70.03136-36.9152 0-68.736 20.41856-85.8368 50.37056a62.69952 62.69952 0 0 0-12.17536-1.24416c-34.44224 0-62.32576 26.89536-64.4864 60.79488-31.49824 5.62688-55.47008 33.0496-55.47008 66.19648 0 37.20704 30.17216 67.37408 67.40992 67.37408 36.86912 0 224.5888-2.3808 258.5344-2.3808 47.62624 0 86.2208-38.59456 86.2208-86.2208s-38.6048-86.23616-86.22592-86.23616zM920.1664 666.34752c-4.67968 0-9.20576 0.67072-13.68064 1.37728-12.50816-40.43264-49.73568-70.03136-94.27456-70.03136-36.9152 0-68.736 20.4032-85.85216 50.3552a63.6416 63.6416 0 0 0-12.16512-1.2288c-34.45248 0-62.32576 26.91072-64.4864 60.79488-31.49312 5.62688-55.47008 33.0496-55.47008 66.19648 0 37.20704 30.17728 67.38944 67.39456 67.38944 36.88448 0 224.60416-2.3808 258.52928-2.3808 47.6416 0 86.2208-38.62528 86.2208-86.23616 0.00512-47.62112-38.5792-86.23616-86.21568-86.23616zM467.9424 466.13504c0 79.9744-57.30816 146.48832-133.07904 160.90112a163.16416 163.16416 0 0 0 28.76416 51.39456c30.06464-36.19328 75.37152-59.25888 126.11072-59.25888 50.72896 0 96.01536 23.04512 126.08 59.22816a162.74432 162.74432 0 0 0 29.88544-54.42048c-76.80512-13.61408-135.15264-80.54272-135.15264-161.23392 0-17.51552 2.79552-34.36032 7.9104-50.21184-9.36448-1.64864-18.9184-2.65728-28.73344-2.65728-10.56256 0-20.82304 1.08544-30.81216 2.97472 5.74464 16.74752 9.02656 34.61632 9.02656 53.28384z" fill="#d4237a" /></svg>