<?xml version="1.0" standalone="no"?><!DOCTYPE svg PUBLIC "-//W3C//DTD SVG 1.1//EN" "http://www.w3.org/Graphics/SVG/1.1/DTD/svg11.dtd"><svg class="icon" width="200px" height="195.23px" viewBox="0 0 1049 1024" version="1.1" xmlns="http://www.w3.org/2000/svg"><path d="M925.564712 0c5.465933 1.269507 11.015619 2.251024 16.381637 3.852601 42.986921 12.827311 69.304214 41.621907 79.952499 84.80278 2.231923 9.043769 3.416208 18.587112 3.423555 27.902708 0.186606 216.675769 0.145464 433.351537 0.145464 650.027306 0 10.595389-0.002939 10.595389-10.898072 10.596858-8.569173 0-17.141284-0.146934-25.706049 0.057304-4.413888 0.104323-6.398962-1.536926-6.02722-6.00518 0.161627-1.945402 0.024979-3.915783 0.024979-5.874409 0-212.023848 0.302683-424.047696-0.240971-636.070075-0.116078-45.617034-30.582779-78.275986-74.01197-86.507211-7.561208-1.432603-15.447139-1.579537-23.181729-1.581007-250.707081-0.077875-501.412693-0.120486-752.119774 0.023509-24.930239 0.014693-47.572721 8.02111-65.41488 25.678132-14.644881 14.493539-24.070677 32.46353-25.171211 53.551453-1.04176 19.949187-1.513417 39.948332-1.520764 59.925437-0.098446 236.751319-0.158688 473.502638 0.082283 710.253957 0.024979 23.926682 7.086612 46.191545 23.947253 63.947012 14.099757 14.849119 31.470258 24.393932 52.159991 26.762503 7.686101 0.881602 15.457424 1.454644 23.187606 1.457582 214.717143 0.077875 429.434285 0.061712 644.149958 0.061712 10.078182 0 10.272134 0.010285 10.032632 9.941534-0.251257 10.402905-0.927152 20.798464-1.416441 31.195492-232.615136 0-465.231741 0-697.848345 0-0.740546-0.476065-1.431134-1.254814-2.227515-1.384115-42.607832-6.955841-69.938968-32.460591-85.995882-71.289289-3.21344-7.769854-4.888484-16.178869-7.271748-24.291078 0-276.201546 0-552.401623 0-828.601699 0.449617-0.498105 1.248936-0.965354 1.294486-1.498724 1.201918-13.798543 5.404221-26.743401 12.154355-38.68911 12.390918-21.925446 29.457267-39.082893 53.411866-48.109029 10.758485-4.053901 22.010667-6.798622 33.03951-10.136955C375.121715 0 650.343214 0 925.564712 0zM941.725949 1024c0-32.976328 0-65.955596 0-99.903156 36.050181 0 71.650746 0 107.246902 0 0-13.710383 0-27.423704 0-41.135556-35.615258 0-71.231984 0-107.631868 0 0-32.431204 0-63.842689 0-95.080792-14.405379 0-28.015847 0-42.406533 0 0 31.815552 0 63.229976 0 95.415801-35.133315 0-69.480535 0-103.735186 0 0 13.914621 0 27.032861 0 40.934257 34.727778 0 69.076467 0 103.921792 0 0 33.781525 0 66.775486 0 99.769446C913.322197 1024 927.523338 1024 941.725949 1024zM359.627558 862.957735c0.458433 0.296806 0.918336 0.593612 1.376769 0.890418 126.533418-141.162136 253.063898-282.325742 380.587649-424.591351-88.192541 3.383883-174.355927 6.686952-262.197296 10.057611 87.90455-114.903616 174.92603-228.652334 263.131794-343.951202-2.810842 0.919805-3.480859 1.093187-4.117082 1.353259-68.651829 28.240656-137.312474 56.457802-205.90259 84.842452-2.740313 1.134328-5.27492 3.504369-7.140977 5.89351-10.668855 13.658956-21.146697 27.466315-31.612784 41.281021C422.81933 332.355195 351.904723 425.991629 281.004808 519.638348c-1.37383 1.811692-2.500811 3.815868-4.435928 6.798622 90.104148 2.63599 178.888831 5.233778 269.245705 7.875646C483.360419 644.554026 421.492519 753.753677 359.627558 862.957735z" fill="#d81e06" /></svg>