<?xml version="1.0" standalone="no"?><!DOCTYPE svg PUBLIC "-//W3C//DTD SVG 1.1//EN" "http://www.w3.org/Graphics/SVG/1.1/DTD/svg11.dtd"><svg t="1501212564192" class="icon" style="" viewBox="0 0 1024 1024" version="1.1" xmlns="http://www.w3.org/2000/svg" p-id="1742" xmlns:xlink="http://www.w3.org/1999/xlink" width="200" height="200"><defs><style type="text/css"></style></defs><path d="M1024 201.15456c0 30.1056-9.33888 58.85952-27.99616 86.28224s-41.92256 50.85184-69.71392 70.28736c-143.23712 99.4304-232.40704 161.32096-267.40736 185.71264-3.85024 2.64192-11.91936 8.47872-24.33024 17.408-12.36992 8.99072-22.6304 16.19968-30.86336 21.77024-8.17152 5.48864-18.08384 11.6736-29.696 18.55488a175.14496 175.14496 0 0 1-32.84992 15.40096 90.68544 90.68544 0 0 1-28.59008 5.16096h-1.1264c-8.76544 0-18.28864-1.72032-28.59008-5.16096a174.55104 174.55104 0 0 1-32.84992-15.40096 652.10368 652.10368 0 0 1-29.71648-18.55488 1088.34816 1088.34816 0 0 1-30.86336-21.77024c-12.36992-8.92928-20.48-14.76608-24.28928-17.408a26320.09728 26320.09728 0 0 0-149.7088-104.28416c-65.14688-45.1584-104.18176-72.2944-117.1456-81.42848-23.61344-15.99488-45.91616-37.9904-66.8672-66.00704C10.46528 263.72096 0 237.71136 0 213.7088c0-29.71648 7.90528-54.4768 23.71584-74.28096 15.79008-19.80416 38.37952-29.71648 67.70688-29.71648h841.13408c24.76032 0 46.20288 8.97024 64.3072 26.86976C1014.94784 154.48064 1024 176.00512 1024 201.15456z m0 167.97696V822.8864c0 25.12896-8.94976 46.63296-26.86976 64.512-17.89952 17.92-39.424 26.89024-64.57344 26.89024H91.42272c-25.12896 0-46.65344-8.97024-64.55296-26.89024C8.94976 869.51936 0 847.99488 0 822.8864V369.13152a302.6944 302.6944 0 0 0 57.71264 49.72544c137.91232 93.71648 232.57088 159.41632 284.01664 197.14048a1341.8496 1341.8496 0 0 0 52.85888 37.43744c13.5168 8.92928 31.51872 18.08384 54.00576 27.40224 22.48704 9.35936 43.43808 14.00832 62.85312 14.00832h1.1264c19.41504 0 40.38656-4.64896 62.8736-14.00832 22.46656-9.3184 40.46848-18.47296 54.00576-27.40224a1398.76352 1398.76352 0 0 0 52.8384-37.43744c64.75776-46.83776 159.62112-112.59904 284.5696-197.14048A314.34752 314.34752 0 0 0 1024 369.13152z" p-id="1743" fill="#818181"></path></svg>