<?xml version="1.0" standalone="no"?><!DOCTYPE svg PUBLIC "-//W3C//DTD SVG 1.1//EN" "http://www.w3.org/Graphics/SVG/1.1/DTD/svg11.dtd"><svg t="1505544626824" class="icon" style="" viewBox="0 0 1024 1024" version="1.1" xmlns="http://www.w3.org/2000/svg" p-id="6582" xmlns:xlink="http://www.w3.org/1999/xlink" width="200" height="200"><defs><style type="text/css"></style></defs><path d="M831.345789 766.747327c0 0-24.472019-198.395871-191.686832-191.686832 0 0-189.450485 4.344902-191.686832 191.686832 0 0-187.916991-12.204062-191.686832 127.791221-0.127791 153.86063 127.791221 127.791221 127.791221 127.791221l511.164884 0c0 0 126.768891-3.897632 127.791221-127.791221C1029.166599 736.333016 831.345789 766.747327 831.345789 766.747327zM0.702852 0l0 1022.329769 127.791221 0 0-383.373663 319.478053 0 0-127.791221-319.478053 0 0-127.791221 766.747327 0 0 127.791221-63.895611 0 0 127.791221 191.686832 0 0-638.956105L0.702852 0zM256.285294 255.582442c-35.270377 0-63.895611-28.561338-63.895611-63.895611s28.625234-63.895611 63.895611-63.895611 63.895611 28.561338 63.895611 63.895611S291.555671 255.582442 256.285294 255.582442zM447.972126 255.582442c-35.270377 0-63.895611-28.561338-63.895611-63.895611s28.625234-63.895611 63.895611-63.895611 63.895611 28.561338 63.895611 63.895611S483.242503 255.582442 447.972126 255.582442zM639.658957 255.582442c-35.334273 0-63.895611-28.561338-63.895611-63.895611s28.561338-63.895611 63.895611-63.895611 63.895611 28.561338 63.895611 63.895611S674.99323 255.582442 639.658957 255.582442z" p-id="6583" fill="#26b1e5"></path></svg>